<svg xmlns="http://www.w3.org/2000/svg" width="20" height="20" viewBox="0 0 20 20" fill="none">
  <g clip-path="url(#clip0_0_1120)">
    <path fill-rule="evenodd" clip-rule="evenodd" d="M8.00831 0.940962L0.937056 8.01096C0.675887 8.27213 0.468717 8.58218 0.327373 8.92341C0.18603 9.26464 0.113281 9.63037 0.113281 9.99971C0.113281 10.3691 0.18603 10.7348 0.327373 11.076C0.468717 11.4172 0.675887 11.7273 0.937056 11.9885L8.00831 19.0597C8.26947 19.3209 8.57952 19.528 8.92075 19.6694C9.26198 19.8107 9.62771 19.8835 9.99706 19.8835C10.3664 19.8835 10.7321 19.8107 11.0734 19.6694C11.4146 19.528 11.7246 19.3209 11.9858 19.0597L19.0571 11.9885C19.3182 11.7273 19.5254 11.4172 19.6667 11.076C19.8081 10.7348 19.8808 10.3691 19.8808 9.99971C19.8808 9.63037 19.8081 9.26464 19.6667 8.92341C19.5254 8.58218 19.3182 8.27213 19.0571 8.01096L11.9858 0.940962C11.7246 0.679793 11.4146 0.472623 11.0734 0.33128C10.7321 0.189936 10.3664 0.117188 9.99706 0.117188C9.62771 0.117188 9.26198 0.189936 8.92075 0.33128C8.57952 0.472623 8.26947 0.679793 8.00831 0.940962ZM8.74956 13.7497C8.74956 13.4182 8.88125 13.1002 9.11567 12.8658C9.35009 12.6314 9.66803 12.4997 9.99956 12.4997H10.0083C10.3398 12.4997 10.6578 12.6314 10.8922 12.8658C11.1266 13.1002 11.2583 13.4182 11.2583 13.7497C11.2583 14.0812 11.1266 14.3992 10.8922 14.6336C10.6578 14.868 10.3398 14.9997 10.0083 14.9997H9.99956C9.66803 14.9997 9.35009 14.868 9.11567 14.6336C8.88125 14.3992 8.74956 14.0812 8.74956 13.7497ZM10.9371 7.18721C10.9371 6.93857 10.8383 6.70011 10.6625 6.5243C10.4867 6.34848 10.2482 6.24971 9.99956 6.24971C9.75092 6.24971 9.51246 6.34848 9.33664 6.5243C9.16083 6.70011 9.06206 6.93857 9.06206 7.18721V10.3122C9.06206 10.5609 9.16083 10.7993 9.33664 10.9751C9.51246 11.1509 9.75092 11.2497 9.99956 11.2497C10.2482 11.2497 10.4867 11.1509 10.6625 10.9751C10.8383 10.7993 10.9371 10.5609 10.9371 10.3122V7.18721Z" fill="white" fill-opacity="0.32"/>
  </g>
  <defs>
    <clipPath id="clip0_0_1120">
      <rect width="20" height="20" fill="white"/>
    </clipPath>
  </defs>
</svg>