<svg xmlns="http://www.w3.org/2000/svg" width="16" height="16" viewBox="0 0 16 16" fill="none">
  <path d="M3 10.1111C3 9.17769 3 8.71098 3.18166 8.35446C3.34144 8.04086 3.59641 7.78589 3.91002 7.6261C4.26654 7.44444 4.73325 7.44444 5.66667 7.44444H10.3333C11.2668 7.44444 11.7335 7.44444 12.09 7.6261C12.4036 7.78589 12.6586 8.04086 12.8183 8.35446C13 8.71098 13 9.17769 13 10.1111V10.3333C13 11.2668 13 11.7335 12.8183 12.09C12.6586 12.4036 12.4036 12.6586 12.09 12.8183C11.7335 13 11.2668 13 10.3333 13H5.66667C4.73325 13 4.26654 13 3.91002 12.8183C3.59641 12.6586 3.34144 12.4036 3.18166 12.09C3 11.7335 3 11.2668 3 10.3333V10.1111Z" fill="#2B133D"/>
  <path d="M10.7778 7.44444V5.77778C10.7778 4.24365 9.53412 3 8 3C6.46588 3 5.22222 4.24365 5.22222 5.77778V7.44444M5.66667 13H10.3333C11.2668 13 11.7335 13 12.09 12.8183C12.4036 12.6586 12.6586 12.4036 12.8183 12.09C13 11.7335 13 11.2668 13 10.3333V10.1111C13 9.17769 13 8.71098 12.8183 8.35446C12.6586 8.04086 12.4036 7.78589 12.09 7.6261C11.7335 7.44444 11.2668 7.44444 10.3333 7.44444H5.66667C4.73325 7.44444 4.26654 7.44444 3.91002 7.6261C3.59641 7.78589 3.34144 8.04086 3.18166 8.35446C3 8.71098 3 9.17769 3 10.1111V10.3333C3 11.2668 3 11.7335 3.18166 12.09C3.34144 12.4036 3.59641 12.6586 3.91002 12.8183C4.26654 13 4.73325 13 5.66667 13Z" stroke="#2B133D" stroke-width="1.2" stroke-linecap="round" stroke-linejoin="round"/>
</svg>