<svg xmlns="http://www.w3.org/2000/svg" width="22" height="22" viewBox="0 0 22 22" fill="none">
  <path d="M5 13.5333C5 12.4132 5 11.8532 5.21799 11.4254C5.40973 11.049 5.71569 10.7431 6.09202 10.5513C6.51984 10.3333 7.0799 10.3333 8.2 10.3333H13.8C14.9201 10.3333 15.4802 10.3333 15.908 10.5513C16.2843 10.7431 16.5903 11.049 16.782 11.4254C17 11.8532 17 12.4132 17 13.5333V13.8C17 14.9201 17 15.4802 16.782 15.908C16.5903 16.2843 16.2843 16.5903 15.908 16.782C15.4802 17 14.9201 17 13.8 17H8.2C7.0799 17 6.51984 17 6.09202 16.782C5.71569 16.5903 5.40973 16.2843 5.21799 15.908C5 15.4802 5 14.9201 5 13.8V13.5333Z" fill="#98370E"/>
  <path d="M7.66667 10.3333V8.33333C7.66667 6.49238 9.15905 5 11 5C12.6126 5 13.9578 6.14517 14.2667 7.66667M8.2 17H13.8C14.9201 17 15.4802 17 15.908 16.782C16.2843 16.5903 16.5903 16.2843 16.782 15.908C17 15.4802 17 14.9201 17 13.8V13.5333C17 12.4132 17 11.8532 16.782 11.4254C16.5903 11.049 16.2843 10.7431 15.908 10.5513C15.4802 10.3333 14.9201 10.3333 13.8 10.3333H8.2C7.0799 10.3333 6.51984 10.3333 6.09202 10.5513C5.71569 10.7431 5.40973 11.049 5.21799 11.4254C5 11.8532 5 12.4132 5 13.5333V13.8C5 14.9201 5 15.4802 5.21799 15.908C5.40973 16.2843 5.71569 16.5903 6.09202 16.782C6.51984 17 7.0799 17 8.2 17Z" stroke="#98370E" stroke-width="1.2" stroke-linecap="square" stroke-linejoin="round"/>
</svg>
