<svg xmlns="http://www.w3.org/2000/svg" width="20" height="20" viewBox="0 0 20 20" fill="none">
  <path d="M17.9583 8.04621C17.8535 7.70813 17.5662 7.46802 17.2262 7.43605L12.6082 6.99849L10.7821 2.53845C10.6474 2.21158 10.3408 2 10.0001 2C9.65936 2 9.35271 2.21158 9.21806 2.53921L7.39197 6.99849L2.77321 7.43605C2.43385 7.46878 2.14722 7.70813 2.04187 8.04621C1.93652 8.38428 2.03381 8.75509 2.29053 8.98884L5.78121 12.1833L4.75189 16.9147C4.67657 17.2626 4.80597 17.6222 5.08259 17.8308C5.23128 17.9429 5.40523 18 5.58065 18C5.7319 18 5.88193 17.9575 6.01657 17.8734L10.0001 15.389L13.9821 17.8734C14.2735 18.0563 14.6408 18.0396 14.9168 17.8308C15.1935 17.6215 15.3228 17.2618 15.2475 16.9147L14.2182 12.1833L17.7089 8.98947C17.9656 8.75509 18.0636 8.38492 17.9583 8.04621Z" fill="#EB9AFF"/>
</svg>
