<svg xmlns="http://www.w3.org/2000/svg" width="22" height="22" viewBox="0 0 22 22" fill="none">
  <path d="M10.3893 19.7845C10.583 19.8973 10.6798 19.9537 10.8165 19.983C10.9226 20.0057 11.0774 20.0057 11.1835 19.983C11.3202 19.9537 11.417 19.8973 11.6107 19.7845C13.3153 18.7919 18 15.674 18 11.3871V8.06828C18 7.13037 18 6.66141 17.8552 6.32852C17.7079 5.99017 17.5613 5.81018 17.2594 5.59742C16.9623 5.38809 16.38 5.26721 15.2155 5.02546C13.932 4.75901 12.9462 4.27786 12.0451 3.58203C11.6129 3.24836 11.3969 3.08152 11.2278 3.03601C11.0494 2.988 10.9506 2.988 10.7722 3.03601C10.6031 3.08152 10.3871 3.24836 9.95492 3.58203C9.05376 4.27786 8.06805 4.75901 6.78451 5.02546C5.61995 5.26721 5.03767 5.38809 4.74064 5.59742C4.43874 5.81018 4.29206 5.99017 4.14484 6.32852C4 6.66141 4 7.13037 4 8.06828V11.3871C4 15.674 8.68472 18.7919 10.3893 19.7845Z" fill="#416029"/>
</svg>