<svg xmlns="http://www.w3.org/2000/svg" width="20" height="20" viewBox="0 0 20 20" fill="none">
  <path d="M9.99935 18.3337C14.6017 18.3337 18.3327 14.6027 18.3327 10.0003C18.3327 5.39795 14.6017 1.66699 9.99935 1.66699C5.39698 1.66699 1.66602 5.39795 1.66602 10.0003C1.66602 14.6027 5.39698 18.3337 9.99935 18.3337Z" stroke="#2B133D" stroke-width="1.2" stroke-linecap="round" stroke-linejoin="round"/>
  <path d="M9.99935 15.0003C12.7608 15.0003 14.9993 12.7617 14.9993 10.0003C14.9993 7.2389 12.7608 5.00033 9.99935 5.00033C7.23793 5.00033 4.99935 7.2389 4.99935 10.0003C4.99935 12.7617 7.23793 15.0003 9.99935 15.0003Z" stroke="#2B133D" stroke-width="1.2" stroke-linecap="round" stroke-linejoin="round"/>
  <path d="M9.99935 11.667C10.9198 11.667 11.666 10.9208 11.666 10.0003C11.666 9.07985 10.9198 8.33366 9.99935 8.33366C9.07887 8.33366 8.33268 9.07985 8.33268 10.0003C8.33268 10.9208 9.07887 11.667 9.99935 11.667Z" stroke="#2B133D" stroke-width="1.2" stroke-linecap="round" stroke-linejoin="round"/>
</svg>