<svg xmlns="http://www.w3.org/2000/svg" width="16" height="16" viewBox="0 0 16 16" fill="none">
  <path d="M10.75 8C10.2859 8 9.84075 8.18437 9.51256 8.51256C9.18437 8.84075 9 9.28587 9 9.75C9 10.2141 9.18437 10.6592 9.51256 10.9874C9.84075 11.3156 10.2859 11.5 10.75 11.5H14V14H2V5.5H14V8H10.75ZM11.25 10.5H10.75C10.5511 10.5 10.3603 10.421 10.2197 10.2803C10.079 10.1397 10 9.94891 10 9.75C10 9.55109 10.079 9.36032 10.2197 9.21967C10.3603 9.07902 10.5511 9 10.75 9H11.25C11.4489 9 11.6397 9.07902 11.7803 9.21967C11.921 9.36032 12 9.55109 12 9.75C12 9.94891 11.921 10.1397 11.7803 10.2803C11.6397 10.421 11.4489 10.5 11.25 10.5ZM10 2L12 4.5H6L10 2Z" fill="#2B133D"/>
</svg>