<svg xmlns="http://www.w3.org/2000/svg" width="18" height="18" viewBox="0 0 18 18" fill="none">
  <path d="M2 11.9556C2 10.6488 2 9.99537 2.25432 9.49624C2.47802 9.0572 2.83498 8.70024 3.27402 8.47654C3.77315 8.22222 4.42654 8.22222 5.73333 8.22222H12.2667C13.5735 8.22222 14.2269 8.22222 14.726 8.47654C15.165 8.70024 15.522 9.0572 15.7457 9.49624C16 9.99537 16 10.6488 16 11.9556V12.2667C16 13.5735 16 14.2269 15.7457 14.726C15.522 15.165 15.165 15.522 14.726 15.7457C14.2269 16 13.5735 16 12.2667 16H5.73333C4.42654 16 3.77315 16 3.27402 15.7457C2.83498 15.522 2.47802 15.165 2.25432 14.726C2 14.2269 2 13.5735 2 12.2667V11.9556Z" fill="white"/>
  <path d="M12.8889 8.22222V5.88889C12.8889 3.74112 11.1478 2 9 2C6.85223 2 5.11111 3.74112 5.11111 5.88889V8.22222M5.73333 16H12.2667C13.5735 16 14.2269 16 14.726 15.7457C15.165 15.522 15.522 15.165 15.7457 14.726C16 14.2269 16 13.5735 16 12.2667V11.9556C16 10.6488 16 9.99537 15.7457 9.49624C15.522 9.0572 15.165 8.70025 14.726 8.47654C14.2269 8.22222 13.5735 8.22222 12.2667 8.22222H5.73333C4.42654 8.22222 3.77315 8.22222 3.27402 8.47654C2.83498 8.70025 2.47802 9.0572 2.25432 9.49624C2 9.99537 2 10.6488 2 11.9556V12.2667C2 13.5735 2 14.2269 2.25432 14.726C2.47802 15.165 2.83498 15.522 3.27402 15.7457C3.77315 16 4.42654 16 5.73333 16Z" stroke="white" stroke-width="1.2" stroke-linecap="round" stroke-linejoin="round"/>
</svg>