<svg xmlns="http://www.w3.org/2000/svg" width="18" height="18" viewBox="0 0 18 18" fill="none">
  <path d="M15.6376 8.12914L13.9912 6.48119C13.3141 5.80347 13.7279 5.0881 14.4657 5.04466C15.681 4.96936 16.3639 3.67185 15.3714 2.59155C14.2921 1.60104 13.0017 2.28166 12.9264 3.49518C12.8801 4.23372 12.1597 4.65077 11.4855 3.97595L9.87382 2.36275C9.39062 1.87908 8.60649 1.87908 8.12328 2.36275L6.49137 3.99622C5.8143 4.67394 5.09672 4.25399 5.05043 3.51545C4.9752 2.29904 3.67314 1.60684 2.59388 2.60024C1.59853 3.68343 2.29007 4.98673 3.50532 5.06204C4.24315 5.10838 4.66271 5.82954 3.98853 6.50725L2.36241 8.13204C1.8792 8.61571 1.8792 9.40058 2.36241 9.88425L3.97406 11.4975C4.65113 12.1723 4.24894 12.8761 3.51111 12.9224C2.29586 12.9977 1.61589 14.2923 2.60835 15.3726C3.68761 16.366 4.9752 15.6883 5.05043 14.4719C5.09672 13.7333 5.80273 13.3279 6.4798 14.0027L8.10592 15.6304C8.59781 16.1227 9.40219 16.1227 9.89408 15.6333L11.0341 14.4922L11.5231 14.0027C12.1625 13.3337 11.7488 12.6299 11.0196 12.5835C9.80438 12.5082 9.11574 11.2049 10.1082 10.1246C11.1875 9.13124 12.4895 9.82343 12.5647 11.0398C12.611 11.7697 13.3113 12.181 13.9796 11.5409L14.4223 11.0978L15.6144 9.90453C15.6173 9.90163 15.6173 9.90163 15.6202 9.89874L15.6376 9.88136C16.1208 9.39769 16.1208 8.61281 15.6376 8.12914Z" fill="white"/>
</svg>