<svg xmlns="http://www.w3.org/2000/svg" width="18" height="18" viewBox="0 0 18 18" fill="none">
  <path d="M3.4359 12.4103C2.35897 13.3149 2 16 2 16C2 16 4.68513 15.641 5.58974 14.5641C6.09949 13.9611 6.09231 13.0349 5.52513 12.4749C5.24607 12.2086 4.87847 12.0547 4.49288 12.0427C4.10729 12.0308 3.73089 12.1617 3.4359 12.4103Z" fill="white"/>
  <path d="M8.82051 11.3334L6.66667 9.17957C7.04872 8.18841 7.52979 7.23831 8.10256 6.34371C8.93911 5.00618 10.1039 3.90491 11.4863 3.14464C12.8686 2.38437 14.4224 1.99039 16 2.00018C16 3.95297 15.44 7.38473 11.6923 9.89751C10.7855 10.4709 9.82338 10.952 8.82051 11.3334Z" fill="white"/>
  <path d="M6.66667 9.17957H3.07692C3.07692 9.17957 3.47179 7.00422 4.51282 6.30782C5.6759 5.53244 8.10256 6.30782 8.10256 6.30782" fill="white"/>
  <path d="M8.82051 11.3334V14.9231C8.82051 14.9231 10.9959 14.5282 11.6923 13.4872C12.4677 12.3242 11.6923 9.89751 11.6923 9.89751" fill="white"/>
</svg>