<svg xmlns="http://www.w3.org/2000/svg" width="18" height="18" viewBox="0 0 18 18" fill="none">
  <path d="M15.9635 7.29043C15.8718 6.99462 15.6204 6.78452 15.3229 6.75654L11.2821 6.37368L9.68431 2.47114C9.56649 2.18513 9.29817 2 9.00006 2C8.70194 2 8.43362 2.18513 8.31581 2.47181L6.71797 6.37368L2.67656 6.75654C2.37962 6.78519 2.12882 6.99462 2.03664 7.29043C1.94445 7.58625 2.02959 7.91071 2.25422 8.11523L5.30856 10.9104L4.40791 15.0504C4.342 15.3548 4.45523 15.6694 4.69727 15.852C4.82737 15.9501 4.97958 16 5.13307 16C5.26541 16 5.39668 15.9628 5.5145 15.8892L9.00006 13.7154L12.4843 15.8892C12.7393 16.0493 13.0607 16.0347 13.3022 15.852C13.5444 15.6689 13.6575 15.3541 13.5916 15.0504L12.6909 10.9104L15.7453 8.11579C15.9699 7.91071 16.0557 7.5868 15.9635 7.29043Z" fill="white"/>
</svg>