<svg xmlns="http://www.w3.org/2000/svg" width="18" height="18" viewBox="0 0 18 18" fill="none">
  <path d="M3 11.5333C3 10.4132 3 9.85318 3.21799 9.42535C3.40973 9.04903 3.71569 8.74307 4.09202 8.55132C4.51984 8.33333 5.0799 8.33333 6.2 8.33333H11.8C12.9201 8.33333 13.4802 8.33333 13.908 8.55132C14.2843 8.74307 14.5903 9.04903 14.782 9.42535C15 9.85318 15 10.4132 15 11.5333V11.8C15 12.9201 15 13.4802 14.782 13.908C14.5903 14.2843 14.2843 14.5903 13.908 14.782C13.4802 15 12.9201 15 11.8 15H6.2C5.0799 15 4.51984 15 4.09202 14.782C3.71569 14.5903 3.40973 14.2843 3.21799 13.908C3 13.4802 3 12.9201 3 11.8V11.5333Z" fill="white"/>
  <path d="M5.66667 8.33333V6.33333C5.66667 4.49238 7.15905 3 9 3C10.6126 3 11.9578 4.14517 12.2667 5.66667M6.2 15H11.8C12.9201 15 13.4802 15 13.908 14.782C14.2843 14.5903 14.5903 14.2843 14.782 13.908C15 13.4802 15 12.9201 15 11.8V11.5333C15 10.4132 15 9.85318 14.782 9.42535C14.5903 9.04903 14.2843 8.74307 13.908 8.55132C13.4802 8.33333 12.9201 8.33333 11.8 8.33333H6.2C5.0799 8.33333 4.51984 8.33333 4.09202 8.55132C3.71569 8.74307 3.40973 9.04903 3.21799 9.42535C3 9.85318 3 10.4132 3 11.5333V11.8C3 12.9201 3 13.4802 3.21799 13.908C3.40973 14.2843 3.71569 14.5903 4.09202 14.782C4.51984 15 5.0799 15 6.2 15Z" stroke="white" stroke-width="1.5" stroke-linecap="square" stroke-linejoin="round"/>
</svg>